<svg aria-hidden="true" style="position: absolute; width: 0; height: 0; overflow: hidden;"
  version="1.1" xmlns="http://www.w3.org/2000/svg" xmlns:xlink="http://www.w3.org/1999/xlink">
  <defs>
    <symbol id="icon-star" viewBox="0 0 17 16">
      <path d="M7.445 1.141c0.368-1.134 1.973-1.134 2.341 0l1.040 3.201c0.165 0.507 0.637 0.85 1.171 0.85h3.366c1.192 0 1.688 1.526 0.723 2.226l-2.723 1.978c-0.431 0.313-0.612 0.869-0.447 1.376l1.040 3.201c0.368 1.134-0.929 2.077-1.894 1.376l-2.723-1.978c-0.431-0.313-1.015-0.313-1.447 0l-2.723 1.978c-0.965 0.701-2.262-0.242-1.894-1.376l1.040-3.201c0.165-0.507-0.016-1.063-0.447-1.376l-2.723-1.978c-0.965-0.701-0.469-2.226 0.723-2.226h3.366c0.533 0 1.006-0.343 1.171-0.85l1.040-3.201z"></path>
    </symbol>
    <symbol id="icon-trash-bin" viewBox="0 0 16 16">
    <path stroke-linejoin="round" stroke-linecap="round" stroke-miterlimit="4" stroke-width="1.3" d="M10.667 4v-0.533c0-0.747 0-1.12-0.145-1.405-0.128-0.251-0.332-0.455-0.583-0.583-0.285-0.145-0.659-0.145-1.405-0.145h-1.067c-0.747 0-1.12 0-1.405 0.145-0.251 0.128-0.455 0.332-0.583 0.583-0.145 0.285-0.145 0.659-0.145 1.405v0.533M6.667 7.667v3.333M9.333 7.667v3.333M2 4h12M12.667 4v7.467c0 1.12 0 1.68-0.218 2.108-0.192 0.376-0.498 0.682-0.874 0.874-0.428 0.218-0.988 0.218-2.108 0.218h-2.933c-1.12 0-1.68 0-2.108-0.218-0.376-0.192-0.682-0.498-0.874-0.874-0.218-0.428-0.218-0.988-0.218-2.108v-7.467"></path>
    </symbol>
    <symbol id="icon-arrow-right" viewBox="0 0 16 16">
      <path stroke-linejoin="round" stroke-linecap="round" stroke-miterlimit="4" stroke-width="1.3" d="M7.5 14l6.5-6.5M14 7.5l-6.5-6.5M14 7.5h-13"></path>
    </symbol>
    <symbol id="icon-running-figure" viewBox="0 0 16 16">
      <path fill="#242424" style="fill: var(--color1, #242424)" d="M16 8c0 4.418-3.582 8-8 8s-8-3.582-8-8c0-4.418 3.582-8 8-8s8 3.582 8 8z"></path>
      <path fill="#f4f4f4" style="fill: var(--color2, #f4f4f4)" d="M12.549 5.817c-0.14-0.167-0.389-0.189-0.556-0.050l-1.094 0.919-0.503-1.246c-0.018-0.047-0.045-0.086-0.076-0.121-0.103-0.229-0.281-0.425-0.527-0.539-0.107-0.049-0.217-0.075-0.327-0.087-0.024-0.013-0.046-0.029-0.074-0.038l-1.925-0.537c-0.108-0.029-0.217-0.010-0.306 0.042-0.106 0.036-0.196 0.113-0.24 0.224l-0.725 1.864c-0.079 0.203 0.022 0.431 0.225 0.511 0.202 0.079 0.431-0.023 0.511-0.226l0.612-1.574 0.877 0.244c-0.021 0.035-0.044 0.067-0.062 0.104l-1.124 2.436c-0.016 0.036-0.025 0.072-0.036 0.109l-1.366 2.29-2.286 0.765c-0.259 0.194-0.314 0.558-0.122 0.817 0.192 0.259 0.558 0.314 0.816 0.123l2.339-0.806c0.072-0.052 0.124-0.12 0.163-0.193 0.029-0.031 0.063-0.056 0.085-0.095l0.814-1.365 1.446 1.232-1.547 1.743c-0.213 0.24-0.192 0.611 0.050 0.823 0.241 0.214 0.61 0.192 0.824-0.050l1.93-2.175c0.060-0.067 0.096-0.144 0.12-0.225 0.014-0.044 0.014-0.090 0.018-0.135 0-0.023 0.009-0.044 0.007-0.065-0.005-0.159-0.070-0.314-0.2-0.425l-1.33-1.134c0.096-0.091 0.177-0.2 0.236-0.328l0.862-1.866 0.276 0.735c0.012 0.065 0.034 0.129 0.080 0.183 0.042 0.050 0.095 0.083 0.151 0.106 0.006 0.003 0.013 0.003 0.020 0.005 0.036 0.013 0.072 0.025 0.11 0.027 0.044 0.004 0.090-0.002 0.135-0.014 0.001-0.001 0.002-0.001 0.002-0.001 0.012-0.003 0.024-0.001 0.036-0.006 0.064-0.024 0.113-0.065 0.155-0.113l1.57-1.333c0.167-0.14 0.096-0.389-0.044-0.556z"></path>
      <path fill="#f4f4f4" style="fill: var(--color2, #f4f4f4)" d="M10.563 4.867c0.608 0 1.1-0.493 1.1-1.1s-0.493-1.1-1.1-1.1c-0.608 0-1.1 0.493-1.1 1.1s0.493 1.1 1.1 1.1z"></path>
    </symbol>
  </defs>
</svg>