<!-- Generated by IcoMoon.io -->
<svg version="1.1" xmlns="http://www.w3.org/2000/svg" width="16" height="16" viewBox="0 0 16 16">
<title>favicon-your-energy</title>
<path fill="#242424" d="M16 8c0 4.418-3.582 8-8 8s-8-3.582-8-8c0-4.418 3.582-8 8-8s8 3.582 8 8z"></path>
<path fill="#f4f4f4" d="M5.3 5.857h-0.6c-0.166 0-0.3 0.143-0.3 0.321v1.393h-0.3c-0.055 0-0.1 0.048-0.1 0.107v0.643c0 0.059 0.045 0.107 0.1 0.107h0.3v1.393c0 0.178 0.134 0.321 0.3 0.321h0.6c0.166 0 0.3-0.143 0.3-0.321v-3.643c0-0.178-0.134-0.321-0.3-0.321zM11.9 7.571h-0.3v-1.393c0-0.178-0.134-0.321-0.3-0.321h-0.6c-0.166 0-0.3 0.143-0.3 0.321v3.643c0 0.178 0.134 0.321 0.3 0.321h0.6c0.166 0 0.3-0.143 0.3-0.321v-1.393h0.3c0.055 0 0.1-0.048 0.1-0.107v-0.643c0-0.059-0.045-0.107-0.1-0.107zM9.7 5h-0.6c-0.166 0-0.3 0.143-0.3 0.321v2.25h-1.6v-2.25c0-0.178-0.134-0.321-0.3-0.321h-0.6c-0.166 0-0.3 0.143-0.3 0.321v5.357c0 0.178 0.134 0.321 0.3 0.321h0.6c0.166 0 0.3-0.143 0.3-0.321v-2.25h1.6v2.25c0 0.178 0.134 0.321 0.3 0.321h0.6c0.166 0 0.3-0.143 0.3-0.321v-5.357c0-0.178-0.134-0.321-0.3-0.321z"></path>
</svg>
